<!DOCTYPE svg PUBLIC "-//W3C//DTD SVG 1.1//EN" "http://www.w3.org/Graphics/SVG/1.1/DTD/svg11.dtd" [
	<!ENTITY ns_extend "http://ns.adobe.com/Extensibility/1.0/">
	<!ENTITY ns_ai "http://ns.adobe.com/AdobeIllustrator/10.0/">
	<!ENTITY ns_graphs "http://ns.adobe.com/Graphs/1.0/">
	<!ENTITY ns_vars "http://ns.adobe.com/Variables/1.0/">
	<!ENTITY ns_imrep "http://ns.adobe.com/ImageReplacement/1.0/">
	<!ENTITY ns_sfw "http://ns.adobe.com/SaveForWeb/1.0/">
	<!ENTITY ns_custom "http://ns.adobe.com/GenericCustomNamespace/1.0/">
	<!ENTITY ns_adobe_xpath "http://ns.adobe.com/XPath/1.0/">
]><svg xmlns="http://www.w3.org/2000/svg" width="230.93" height="56.33" viewBox="76.98 18.77 230.93 56.33" shape-rendering="geometricPrecision"><path fill="#FFF" d="M216.01 34.37c-3.5.1-7.09.1-10.6.19.16-1.17.86-2.63 1.21-4.09.11-.45.27-1.12.09-1.49-.34-.71-1.33-.61-2.05-.37-.75.25-1.24.92-1.49 1.3-.62.95-1.46 2.86-1.21 4.37.16.98 1.46 1.86 2.42 2.51 1.06.71 2.07 1.4 2.88 1.95 1.75 1.2 4.21 3.02 4.93 4.84.25.64.36 1.52.37 2.14.04 2.1-.57 4.54-1.3 6.7-.66 1.94-1.42 3.88-2.51 5.39-1.9 2.63-5.51 4.34-8.84 5.21-4.55 1.19-11.43 1.3-14.6-1.4-1.08-.91-1.76-2.34-1.58-4.65.22-2.92 1.44-5.63 2.32-8.37 3.8-.02 7.35-.28 11.16-.28-.38 1.08-.79 2.48-1.3 4-.31.92-1.4 3.17-.74 4.09.53.74 1.94.43 2.6.09.8-.4 1.3-1.25 1.58-1.77.78-1.45 1.49-4.15 1.21-5.39-.2-.9-1.29-1.68-2.23-2.42-.87-.69-1.76-1.25-2.7-1.95-2.5-1.88-5.62-3.4-5.67-7.44-.03-2.28.92-4.47 1.67-6.42.73-1.9 1.69-3.72 2.98-5.02 2.65-2.69 6.82-3.99 10.7-4.28 4.87-.36 11.06.66 12.18 4.09.46 1.41-.04 3.15-.37 4.56-.33 1.41-.77 2.58-1.11 3.91zM282.97 22.47c-.52 2.52-1.26 4.82-1.86 7.25h-6.32c-.47 1.06-.71 2.25-1.02 3.44-.3 1.14-.63 2.32-.93 3.44 1.67 0 4.2.05 6.04-.09-.57 2.4-1.24 4.71-1.86 7.07-2.08-.07-3.88.15-5.95.09-.62 1.19-.84 2.62-1.21 4-.37 1.37-.79 2.74-1.12 4.09 2.27.19 4.88-.08 7.16-.19-.57 2.59-1.27 5.05-1.95 7.53-5.71.4-11.7.52-17.39.93-.03-.82.24-1.63.47-2.42 3.3-11.51 6.54-23.42 9.76-35.06 5.44.02 10.86.02 16.18-.08zM286.41 22.47c3.39-.07 7.23.04 10.32.19 3.59.17 6.75.07 8.28 2.14 1.82 2.45.23 7.02-.47 9.95-1.04 4.35-2.12 9.22-3.35 13.67-.99 3.57-1.86 6.93-4.84 8.56-2.44 1.33-5.69 1.32-9.3 1.49-3.44.16-6.87.43-10.23.56 3.03-12.2 6.31-24.13 9.39-36.27.1-.09.07-.27.2-.29zm7.63 6.32c-1.92 7.81-3.98 15.48-5.86 23.34.75.03 1.99-.16 2.51-.65.83-.78 1.54-3.92 1.86-5.21 1.02-4.05 1.79-7.39 2.79-11.35.29-1.15 1.6-4.76 1.02-5.77-.31-.54-1.42-.67-2.14-.65-.13.04-.1.21-.18.29zM224.2 22.56h10.79c-3.94 13.01-7.91 26.01-11.81 39.06-3.81.19-7.63.37-11.44.56 4.08-13.13 8.15-26.26 12.28-39.34-.02-.16.06-.24.18-.28zM239.35 22.56c3.72-.03 7.4 0 11.25.09 4.49.11 9.48.16 10.42 4 .31 1.27-.05 2.8-.37 4.28-.86 3.92-2.08 7.83-3.07 11.44-.69 2.53-1.34 5-2.14 7.53-.76 2.4-1.36 4.99-2.79 6.88-2.71 3.58-8.03 3.76-14.04 4.09-3.75.21-7.28.29-10.97.56 3.73-12.98 7.68-25.74 11.53-38.6-.01-.15.07-.23.18-.27zm1.21 31.53c3.79.45 4.29-3.59 5.02-6.14 1.22-4.26 2.37-8.08 3.53-12.09.6-2.07 1.47-4.13 1.3-6.32-.5-.52-1.46-.58-2.51-.56-2.5 8.31-4.88 16.74-7.34 25.11zM128.5 22.75c-1.1 2.89-2.2 5.79-3.35 8.65-3.23.02-6.58-.07-9.67.09-1.2 2.67-2.2 5.55-3.35 8.28 2.99.05 5.73-.16 8.74-.09-1.16 2.78-2.19 5.68-3.35 8.46-3.01-.03-5.76.19-8.74.19-2.67 6.32-5.15 12.83-7.72 19.25-4.99.25-10.02.46-14.97.74 6.07-15.28 12.38-30.34 18.51-45.57 7.92.01 16.28-.03 23.9 0zM134.45 22.65h19.06c-2.67 14.29-5.44 28.48-8.09 42.78-4.74.16-9.34.46-14.04.65.74-2.7 1.53-5.36 2.33-8-1.62.06-3.19.16-4.84.19-1.52 2.58-2.62 5.57-4.09 8.18-4.99.12-9.74.49-14.69.65 7.96-14.8 16.07-29.44 24.09-44.18a.45.45 0 0 1 .27-.27zm-2.79 27.72c1.62.07 2.97-.13 4.56-.09 1.4-5.95 3.19-12 4.56-17.67-3.09 5.87-6.33 11.59-9.12 17.76zM163.19 22.65h10.42c.13 6.1.37 12.1.46 18.23 2.28-5.94 4.3-12.13 6.42-18.23h10.14c-4.7 13.71-9.28 27.55-14.04 41.2-3.62.26-7.36.39-11.07.56-.01-6.37-.01-12.72.09-18.97-2.37 6.37-4.56 12.92-6.88 19.34-3.75.09-7.28.41-11.07.47C152.8 51.17 157.85 37 163 22.93c0-.16.07-.24.19-.28z"/><g fill="#062F4D"><path d="M307.9 27.3c-.25-5.01-4.13-7.32-9.21-7.63-9.34-.57-20.63-.19-30.5-.19-1.53 0-3.25-.26-4.46 0-.27.06-.63.31-.93.46-1.01.54-1.82 1.01-2.79 1.49-1.56-.95-3.59-1.53-6.05-1.67-8.28-.5-19.42-.19-28.36-.19-1.42 0-3.03-.22-4.09 0-.55.12-1.26.68-1.86 1.02-.67.39-1.25.79-1.86 1.02-3.34-2.68-9.48-3.36-14.79-2.51-2.92.47-5.43 1.44-7.44 2.6-.39.22-.84.51-1.3.56.38-.83.63-1.79.93-2.7-3.93.02-8.52-.06-12.37.09-1.45.06-2.98-.22-4.19 0-.68.12-1.01.68-1.58.74-.08-.23.18-.8-.19-.74h-11.62c-1.34 0-2.85-.24-3.91 0-.71.16-1.34.89-1.95 1.3-.71.47-1.38.83-1.95 1.12.2-.76.33-1.59.46-2.42-16.79-.1-34.11.09-50.87.09-1.24 0-2.62-.21-3.44 0-.34.09-1.07.72-1.58 1.12-1.18.91-2 1.58-3.07 2.42-.56.44-1.2.86-1.49 1.3-.5.76-.88 2.01-1.3 3.07-6.36 15.9-12.99 31.89-19.16 47.45 5.84-.38 12.54-.62 18.51-.93.88-.05 1.94.07 2.7-.09.78-.16 1.34-1.01 2.05-1.12-.01.25-.62.74-.19.84 16.54-.51 34.09-1.64 50.31-2.33 2.05-.09 4.26.11 5.3-.84-.02.33-.08.7.37.56 3.82-.13 8.07-.35 11.9-.56 1.23-.06 2.95.1 4-.18.35-.09.74-.45 1.12-.65 1.19-.63 2.48-1.24 3.53-1.77 2.88 2.29 7.55 2.8 12.28 2.33 3.41-.34 6.3-1.28 8.74-2.42.87-.41 1.64-.96 2.51-1.12-.21.78-.54 1.45-.65 2.33 11.07-.6 23.36-1.11 34.41-1.77 1.93-.11 3.66-.31 5.3-.74 1.6-.42 2.89-1.1 4.28-1.58-.1.71-.42 1.19-.46 1.95 8.76-.45 17.91-.85 26.6-1.3 4.65-.24 9.1-.21 13.11-.84 1.95-.31 3.6-.97 5.3-1.67 1.67-.7 3.32-1.38 4.93-2.05 3.75-1.55 6.16-2.61 8-5.95 1.44-2.61 2.48-6.98 3.35-10.6.88-3.68 1.83-7.49 2.7-11.25.42-1.86 1.02-4.04.92-6.05zM101.06 67.57c-4.99.25-10.02.46-14.97.74 6.07-15.28 12.38-30.34 18.51-45.57 7.92.02 16.28-.02 23.9 0-1.1 2.89-2.2 5.79-3.35 8.65-3.23.02-6.58-.07-9.67.09-1.2 2.67-2.2 5.55-3.35 8.28 2.99.05 5.73-.16 8.74-.09-1.16 2.78-2.19 5.68-3.35 8.46-3.01-.03-5.76.19-8.74.19-2.67 6.32-5.14 12.83-7.72 19.25zm30.32-1.49c.74-2.7 1.53-5.36 2.33-8-1.62.06-3.19.16-4.84.19-1.52 2.58-2.62 5.57-4.09 8.18-4.99.12-9.74.49-14.69.65 7.96-14.8 16.07-29.44 24.09-44.18.05-.13.15-.23.28-.28h19.06c-2.67 14.29-5.44 28.48-8.09 42.78-4.74.17-9.34.47-14.05.66zm34.13-1.67c-.01-6.37-.01-12.72.09-18.97-2.37 6.37-4.56 12.92-6.88 19.34-3.75.09-7.28.41-11.07.47C152.8 51.17 157.85 37 163 22.93c0-.16.07-.24.19-.28h10.42c.13 6.1.37 12.1.46 18.23 2.28-5.94 4.3-12.13 6.42-18.23h10.14c-4.7 13.71-9.28 27.55-14.04 41.2-3.63.26-7.37.39-11.08.56zm43.25-6.6c-1.9 2.63-5.51 4.34-8.84 5.21-4.55 1.19-11.43 1.3-14.6-1.4-1.08-.91-1.76-2.34-1.58-4.65.22-2.92 1.44-5.63 2.32-8.37 3.8-.02 7.35-.28 11.16-.28-.38 1.08-.79 2.48-1.3 4-.31.92-1.4 3.17-.74 4.09.53.74 1.94.43 2.6.09.8-.4 1.3-1.25 1.58-1.77.78-1.45 1.49-4.15 1.21-5.39-.2-.9-1.29-1.68-2.23-2.42-.87-.69-1.76-1.25-2.7-1.95-2.5-1.88-5.62-3.4-5.67-7.44-.03-2.28.92-4.47 1.67-6.42.73-1.9 1.69-3.72 2.98-5.02 2.65-2.69 6.82-3.99 10.7-4.28 4.87-.36 11.06.66 12.18 4.09.46 1.41-.04 3.15-.37 4.56-.34 1.4-.78 2.58-1.12 3.91-3.5.1-7.09.1-10.6.19.16-1.17.86-2.63 1.21-4.09.11-.45.27-1.12.09-1.49-.34-.71-1.33-.61-2.05-.37-.75.25-1.24.92-1.49 1.3-.62.95-1.46 2.86-1.21 4.37.16.98 1.46 1.86 2.42 2.51 1.06.71 2.07 1.4 2.88 1.95 1.75 1.2 4.21 3.02 4.93 4.84.25.64.36 1.52.37 2.14.04 2.1-.57 4.54-1.3 6.7-.65 1.93-1.41 3.88-2.5 5.39zm2.97 4.37c4.08-13.13 8.15-26.26 12.28-39.34-.01-.16.07-.24.19-.28h10.79c-3.94 13.01-7.91 26.01-11.81 39.06-3.82.18-7.63.37-11.45.56zm40.92-5.4c-2.71 3.58-8.03 3.76-14.04 4.09-3.75.21-7.27.29-10.97.56 3.73-12.98 7.68-25.74 11.53-38.6 0-.16.07-.24.19-.28 3.73-.03 7.4 0 11.25.09 4.49.11 9.49.16 10.42 4 .31 1.27-.05 2.8-.37 4.28-.86 3.92-2.08 7.83-3.07 11.44-.69 2.53-1.34 5-2.14 7.53-.76 2.41-1.36 5-2.8 6.89zm23.25-5.2c-.57 2.59-1.27 5.05-1.95 7.53-5.71.4-11.7.52-17.39.93-.03-.82.24-1.63.47-2.42 3.3-11.51 6.54-23.42 9.76-35.06 5.44.01 10.86.01 16.18-.09-.52 2.52-1.26 4.82-1.86 7.25h-6.32c-.47 1.06-.71 2.25-1.02 3.44-.3 1.14-.63 2.32-.93 3.44 1.67 0 4.2.05 6.05-.09-.57 2.4-1.24 4.71-1.86 7.07-2.08-.07-3.88.15-5.95.09-.62 1.19-.84 2.62-1.21 4-.37 1.37-.79 2.75-1.12 4.09 2.26.19 4.87-.08 7.15-.18zm28.65-16.84c-1.04 4.35-2.12 9.22-3.35 13.67-.99 3.57-1.86 6.93-4.84 8.56-2.44 1.33-5.69 1.31-9.3 1.49-3.44.16-6.87.43-10.23.56 3.03-12.2 6.31-24.13 9.39-36.27.08-.08.05-.26.19-.28 3.39-.07 7.23.04 10.32.19 3.59.17 6.75.07 8.28 2.14 1.82 2.44.24 7.01-.46 9.94z"/><path d="M294.23 28.51c-.13.02-.11.2-.19.28-1.92 7.81-3.98 15.48-5.86 23.34.75.03 1.99-.16 2.51-.65.83-.78 1.54-3.92 1.86-5.21 1.02-4.05 1.79-7.39 2.79-11.35.29-1.15 1.6-4.76 1.02-5.77-.3-.53-1.42-.65-2.13-.64zM247.91 28.98c-2.51 8.31-4.89 16.74-7.35 25.11 3.79.45 4.29-3.59 5.02-6.14 1.22-4.26 2.37-8.08 3.53-12.09.6-2.07 1.47-4.13 1.3-6.32-.49-.53-1.45-.59-2.5-.56zM136.22 50.27c1.4-5.95 3.19-12 4.56-17.67-3.08 5.88-6.32 11.6-9.11 17.76 1.61.08 2.96-.13 4.55-.09z"/></g></svg>